<svg width="18" height="16" fill="none" xmlns="http://www.w3.org/2000/svg"><path class="icon__color-element" d="M17.223 5.74a5 5 0 01-1.458 3.508l-4.25 4.166a.833.833 0 01-1.117 0 .833.833 0 010-1.125l4.25-4.166a3.4 3.4 0 00-3.715-5.538 3.392 3.392 0 00-1.101.746L2.94 10.24a2 2 0 102.825 2.825l1.967-1.958 4.941-4.95a.575.575 0 00.175-.417.608.608 0 00-.175-.433.625.625 0 00-.425-.175.591.591 0 00-.425.175l-3.45 3.458-2.966 2.95a.833.833 0 01-1.117 0 .784.784 0 010-1.108L9.207 5.69l1.458-1.491a2.191 2.191 0 013.567 2.39c-.11.263-.271.501-.475.701L6.89 14.181a3.583 3.583 0 01-6.117-2.5 3.6 3.6 0 011.05-2.5l6.9-6.9a5 5 0 018.5 3.525v-.067z" fill="#fff"/></svg>