<svg width="1600" height="468" fill="none" xmlns="http://www.w3.org/2000/svg"><path opacity=".6" fill-rule="evenodd" clip-rule="evenodd" d="M189.053 37.964l.477-.21L275.018 0v302.879l17.213-10.311V125.716l93.805 26.439v116.26l19.724-.289v-100.49l25.435-.668v27.572h29.794v53.223h25.053V179.51l73.107 24.648v99.335h63.663v32.832h40.421v-91.066h28.226v-78.27h38.261v-58.234h37.354v43.519h7.492v-32.248h19.792v104.418h17.249v81.403h17.214v-55.981l26.212 36.009v2.248l-.225.163-24.385-33.5v52.66h-20.418v-81.401h-17.249v-104.42H776.17v32.247h-10.698v-43.518h-34.151v58.232h-38.259v78.272h-28.227v91.066H621.21v-32.832h-63.663v-99.786l-69.903-23.567v67.623h-28.257v-53.223h-29.794v-27.531l-22.231.584v100.509l-22.93.337V153.366l-90.6-25.534v165.641l-20.418 12.232V2.458l-82.759 36.549v207.837l-20.732.34V94.762l-26.625-10.337v129.247h-20.104v-91.793L29 159.315v122.664l-42-16.277v-.859l.29-.746 40.109 15.545v-121.54l97.397-38.329v92.3h16.9V82.087l29.828 11.581V245.56l17.529-.286V37.964zM1611.95 56.878l-.48-.21-85.49-37.754v302.879l-17.21-10.312V144.63l-93.8 26.439v116.26l1.6 110.875h-21.32v-100.49l-25.43-.668v27.572h-29.79v53.223h-25.06v-68.253l-73.1 24.648v99.335h-63.67v32.832h-40.42v-91.066h-28.22v-78.27h-38.26v-58.234h-37.36v43.519h-7.49v-32.248h-19.79v55.415h-17.252v81.403h-17.214V283.951h-1.602v104.57h20.418v-81.402h17.25v-55.416h16.59v32.248h10.69v-43.519h34.15v58.232h38.26v78.272h28.23v91.066h43.62V435.17h63.67v-99.786l69.9-23.567v67.623h28.26v-53.223h29.79v-27.53l22.23.583v100.509h24.81l-1.89-110.827V172.279l90.6-25.533v165.64l20.42 12.232V21.371l82.76 36.55v207.837l20.73.34V113.676l26.62-10.337v129.247h20.11v-91.793L1812 178.229v122.664l42-16.277v-.859l-.29-.747-40.11 15.545V177.016l-137.39-38.329v92.3h-16.91V101.001l-29.82 11.581v151.892l-17.53-.287V56.877z" fill="url(#paint0_linear_482_1870)"/><defs><linearGradient id="paint0_linear_482_1870" x1="-237.191" y1="90.106" x2="1682.08" y2="388.694" gradientUnits="userSpaceOnUse"><stop stop-color="#fff"/><stop offset="1" stop-color="#fff" stop-opacity="0"/></linearGradient></defs></svg>