<svg width="42" height="42" viewBox="0 0 42 42" fill="none" xmlns="http://www.w3.org/2000/svg">
<path class="icon__color-element" d="M36.5 27.25V11.15L26 3.8L15.5 11.15V17.6H12.5V9.65L26 0L39.5 9.65V27.25H36.5ZM27 14H29V12H27V14ZM23 14H25V12H23V14ZM27 18H29V16H27V18ZM23 18H25V16H23V18ZM26.3 41.9L10.75 37.45V40.3H0V20.6H15.45L28.2 25.4C29.1 25.7333 29.8583 26.275 30.475 27.025C31.0917 27.775 31.4 28.85 31.4 30.25H37.1C38.5 30.25 39.6667 30.75 40.6 31.75C41.5333 32.75 42 34.1 42 35.8V37.1L26.3 41.9ZM3 37.3H7.7V23.6H3V37.3ZM26.1 38.8L38.9 34.9C38.7 34.2667 38.45 33.8333 38.15 33.6C37.85 33.3667 37.5 33.25 37.1 33.25H26.75C25.75 33.25 24.825 33.1833 23.975 33.05C23.125 32.9167 22.3167 32.7333 21.55 32.5L17.5 31.25L18.6 28.35L22.25 29.55C23.0833 29.8167 23.875 30 24.625 30.1C25.375 30.2 26.5667 30.25 28.2 30.25C28.2 29.85 28.125 29.4583 27.975 29.075C27.825 28.6917 27.5667 28.4167 27.2 28.25L14.95 23.6H10.75V34.3L26.1 38.8Z" fill="#000000"/>
</svg>
