<svg width="55" height="89" viewBox="0 0 55 89" fill="none" xmlns="http://www.w3.org/2000/svg">
<path class="icon__color-element" d="M41.2732 69.4652H51.9417V19.6875H41.2732V69.4652ZM25.5296 69.5151H27.7385V19.6875H2.1646V69.4652H11.9942V34.9505L25.5296 23.608V69.5151ZM29.9031 71.6797H23.365V28.2462L14.1588 35.9611V71.6292H0V17.5229H27.7385V0.00119019L41.2732 11.4316V17.5229H54.1063V71.6292H39.1086V12.4373L29.9031 4.66212V71.6797Z" fill="#000000"/>
<path class="icon__color-element" d="M6.23802 81.2802C6.23802 80.5478 6.05953 80.0093 5.70318 79.6652C5.34682 79.3212 4.8126 79.1495 4.09927 79.1495H3.03821V83.8885H4.09927C4.47901 83.8885 4.80337 83.8172 5.07417 83.6731C5.34436 83.5285 5.56593 83.3371 5.73764 83.0964C5.90936 82.857 6.03553 82.5795 6.11677 82.2662C6.1974 81.9529 6.23802 81.6242 6.23802 81.2802ZM3.03821 89H0.0273438V78.0804H5.39606C5.90197 78.0804 6.39004 78.1395 6.85964 78.2589C7.32986 78.377 7.74591 78.5648 8.10719 78.8196C8.46909 79.075 8.75651 79.4049 8.97192 79.8092C9.18672 80.2142 9.29381 80.7035 9.29381 81.2802C9.29381 81.7301 9.19965 82.1535 9.00947 82.5505C8.8199 82.9475 8.56756 83.3014 8.25121 83.6122C7.93548 83.923 7.57235 84.1809 7.16307 84.3858C6.75378 84.5902 6.32911 84.7262 5.88905 84.7914C6.086 85.125 6.29218 85.4414 6.50698 85.7393C6.72239 86.0371 6.93965 86.3172 7.15937 86.5769C7.37909 86.8372 7.59758 87.0779 7.81546 87.2976C8.03272 87.5173 8.24013 87.7186 8.43708 87.9008C8.90237 88.3248 9.36213 88.6917 9.81696 89H6.06384C5.76042 88.712 5.47176 88.3661 5.19911 87.9611C4.96646 87.6177 4.73259 87.1911 4.49748 86.6834C4.26299 86.175 4.08204 85.5879 3.95587 84.9201H3.03821V89Z" fill="#000000"/>
<path class="icon__color-element" d="M14.2452 89H11.2344V78.0804H14.2452V89Z" fill="#000000"/>
<path class="icon__color-element" d="M24.5598 89H16.7188V78.0804H24.5598V79.4757H19.7296V82.8503H23.46V84.2381H19.7296V87.6047H24.5598V89Z" fill="#000000"/>
<path class="icon__color-element" d="M34.2629 89H26.4219V78.0804H29.4321V87.6121H34.2629V89Z" fill="#000000"/>
<path class="icon__color-element" d="M40.733 89H37.7221V79.4757H34.75V78.0804H43.7057V79.4757H40.733V89Z" fill="#000000"/>
<path class="icon__color-element" d="M54.1002 78.0804L50.5668 84.4123V89H47.5559V84.5797L43.9844 78.0804H47.0556L49.4288 83.571L51.9774 78.0804H54.1002Z" fill="#000000"/>
</svg>
