<svg width="48" height="38" viewBox="0 0 48 38" fill="none" xmlns="http://www.w3.org/2000/svg">
<path class="icon__color-element" d="M2.55 21.8C1.68333 20.3667 1.04167 18.925 0.625 17.475C0.208333 16.025 0 14.6 0 13.2C0 9.53333 1.28333 6.41667 3.85 3.85C6.41667 1.28333 9.53333 0 13.2 0C15.3 0 17.2917 0.433334 19.175 1.3C21.0583 2.16667 22.6667 3.35 24 4.85C25.3333 3.35 26.9417 2.16667 28.825 1.3C30.7083 0.433334 32.7 0 34.8 0C38.4667 0 41.5833 1.28333 44.15 3.85C46.7167 6.41667 48 9.53333 48 13.2C48 14.6 47.7917 16.0167 47.375 17.45C46.9583 18.8833 46.3167 20.3167 45.45 21.75C45.1167 21.35 44.7417 21.0083 44.325 20.725C43.9083 20.4417 43.4667 20.2 43 20C43.6667 18.8333 44.1667 17.6833 44.5 16.55C44.8333 15.4167 45 14.3 45 13.2C45 10.3667 44.0083 7.95833 42.025 5.975C40.0417 3.99167 37.6333 3 34.8 3C32.9667 3 31.1583 3.54167 29.375 4.625C27.5917 5.70833 25.8 7.35 24 9.55C22.2 7.35 20.4083 5.70833 18.625 4.625C16.8417 3.54167 15.0333 3 13.2 3C10.3667 3 7.95833 3.99167 5.975 5.975C3.99167 7.95833 3 10.3667 3 13.2C3 14.3 3.16667 15.4167 3.5 16.55C3.83333 17.6833 4.33333 18.8333 5 20C4.53333 20.2 4.09167 20.45 3.675 20.75C3.25833 21.05 2.88333 21.4 2.55 21.8ZM0 38V35.35C0 34.05 0.7 33 2.1 32.2C3.5 31.4 5.3 31 7.5 31C7.93333 31 8.33333 31.0083 8.7 31.025C9.06667 31.0417 9.43333 31.0833 9.8 31.15C9.53333 31.7167 9.33333 32.2917 9.2 32.875C9.06667 33.4583 9 34.0833 9 34.75V38H0ZM12 38V34.75C12 32.5833 13.1083 30.8333 15.325 29.5C17.5417 28.1667 20.4333 27.5 24 27.5C27.6 27.5 30.5 28.1667 32.7 29.5C34.9 30.8333 36 32.5833 36 34.75V38H12ZM39 38V34.75C39 34.0833 38.9417 33.4583 38.825 32.875C38.7083 32.2917 38.5167 31.7167 38.25 31.15C38.6167 31.0833 38.9833 31.0417 39.35 31.025C39.7167 31.0083 40.1 31 40.5 31C42.7333 31 44.5417 31.4 45.925 32.2C47.3083 33 48 34.05 48 35.35V38H39ZM24 30.5C21.3333 30.5 19.1667 30.9 17.5 31.7C15.8333 32.5 15 33.5167 15 34.75V35H33V34.7C33 33.5 32.175 32.5 30.525 31.7C28.875 30.9 26.7 30.5 24 30.5ZM7.5 29.5C6.53333 29.5 5.70833 29.1583 5.025 28.475C4.34167 27.7917 4 26.9667 4 26C4 25.0333 4.34167 24.2083 5.025 23.525C5.70833 22.8417 6.53333 22.5 7.5 22.5C8.46667 22.5 9.29167 22.8417 9.975 23.525C10.6583 24.2083 11 25.0333 11 26C11 26.9667 10.6583 27.7917 9.975 28.475C9.29167 29.1583 8.46667 29.5 7.5 29.5ZM40.5 29.5C39.5333 29.5 38.7083 29.1583 38.025 28.475C37.3417 27.7917 37 26.9667 37 26C37 25.0333 37.3417 24.2083 38.025 23.525C38.7083 22.8417 39.5333 22.5 40.5 22.5C41.4667 22.5 42.2917 22.8417 42.975 23.525C43.6583 24.2083 44 25.0333 44 26C44 26.9667 43.6583 27.7917 42.975 28.475C42.2917 29.1583 41.4667 29.5 40.5 29.5ZM24 26C22.3333 26 20.9167 25.4167 19.75 24.25C18.5833 23.0833 18 21.6667 18 20C18 18.3 18.5833 16.875 19.75 15.725C20.9167 14.575 22.3333 14 24 14C25.7 14 27.125 14.575 28.275 15.725C29.425 16.875 30 18.3 30 20C30 21.6667 29.425 23.0833 28.275 24.25C27.125 25.4167 25.7 26 24 26ZM24 17C23.1667 17 22.4583 17.2833 21.875 17.85C21.2917 18.4167 21 19.1333 21 20C21 20.8333 21.2917 21.5417 21.875 22.125C22.4583 22.7083 23.1667 23 24 23C24.8667 23 25.5833 22.7083 26.15 22.125C26.7167 21.5417 27 20.8333 27 20C27 19.1333 26.7167 18.4167 26.15 17.85C25.5833 17.2833 24.8667 17 24 17Z" fill="#000000"/>
</svg>
