<svg width="19" height="20" viewBox="0 0 19 20" fill="none" xmlns="http://www.w3.org/2000/svg">
<path class="icon__color-element" d="M13.6797 11.3648C10.3535 11.3817 9.81548 13.4587 9.63616 15.2149L9.55465 15.9916H8.88609L8.80458 15.2149C8.62526 13.4587 8.0709 11.3816 4.85882 11.3648C4.32078 10.2164 4.09251 9.28765 4.09251 8.24069C4.09251 5.62331 6.16323 3.17468 9.22848 3.17468C12.2938 3.17468 14.3319 5.60633 14.3319 8.25765C14.3319 9.28765 14.2341 10.2164 13.6797 11.3648ZM9.19593 0C4.14147 0 0 4.28924 0 9.54089C0 14.8096 4.14147 19.0987 9.19593 19.0987C14.2993 19.0987 18.4244 14.8096 18.4244 9.54089C18.4244 4.28925 14.2993 0 9.19593 0Z" fill="#000000"/>
</svg>
