<svg width="32" height="42" viewBox="0 0 32 42" fill="none" xmlns="http://www.w3.org/2000/svg">
<path class="icon__color-element" d="M11.25 23.4L13.05 17.65L8.3 13.95H14.1L16 8L17.85 13.95H23.7L18.95 17.65L20.7 23.4L16 19.85L11.25 23.4ZM4.2 42V26.8C2.7 25.2333 1.625 23.5167 0.975 21.65C0.325 19.7833 0 17.9 0 16C0 11.4667 1.53333 7.66667 4.6 4.6C7.66667 1.53333 11.4667 0 16 0C20.5333 0 24.3333 1.53333 27.4 4.6C30.4667 7.66667 32 11.4667 32 16C32 17.9 31.675 19.7833 31.025 21.65C30.375 23.5167 29.3 25.2333 27.8 26.8V42L16 38.05L4.2 42ZM16 29C19.6333 29 22.7083 27.7417 25.225 25.225C27.7417 22.7083 29 19.6333 29 16C29 12.3667 27.7417 9.29167 25.225 6.775C22.7083 4.25833 19.6333 3 16 3C12.3667 3 9.29167 4.25833 6.775 6.775C4.25833 9.29167 3 12.3667 3 16C3 19.6333 4.25833 22.7083 6.775 25.225C9.29167 27.7417 12.3667 29 16 29ZM7.2 37.8L16 35.05L24.8 37.8V29.25C23.4667 30.2167 22.0333 30.9167 20.5 31.35C18.9667 31.7833 17.4667 32 16 32C14.5333 32 13.0333 31.7833 11.5 31.35C9.96667 30.9167 8.53333 30.2167 7.2 29.25V37.8Z" fill="#000000"/>
</svg>
