<svg width="18" height="16" viewBox="0 0 18 16" fill="none" xmlns="http://www.w3.org/2000/svg">
<path class="icon__color-element" d="M17.2234 5.73939C17.2179 7.05516 16.6939 8.31572 15.7651 9.24772L11.5151 13.4144C11.362 13.5526 11.163 13.6291 10.9568 13.6291C10.7505 13.6291 10.5516 13.5526 10.3984 13.4144C10.2579 13.2608 10.18 13.0601 10.18 12.8519C10.18 12.6437 10.2579 12.443 10.3984 12.2894L14.6484 8.12272C14.9642 7.807 15.2146 7.43219 15.3855 7.01968C15.5563 6.60717 15.6443 6.16505 15.6443 5.71855C15.6443 5.27206 15.5563 4.82994 15.3855 4.41743C15.2146 4.00492 14.9642 3.63011 14.6484 3.31439C14.332 2.9975 13.956 2.74642 13.5421 2.57561C13.1281 2.4048 12.6844 2.31766 12.2366 2.31921C11.7888 2.32076 11.3458 2.41097 10.933 2.58464C10.5203 2.7583 10.146 3.01199 9.83177 3.33105L2.9401 10.2394C2.73933 10.4213 2.57761 10.6421 2.46476 10.8884C2.35191 11.1347 2.29028 11.4014 2.28361 11.6723C2.27694 11.9431 2.32538 12.2125 2.42597 12.4641C2.52656 12.7156 2.67722 12.9441 2.86879 13.1357C3.06037 13.3273 3.28888 13.4779 3.54044 13.5785C3.79201 13.6791 4.06139 13.7275 4.33223 13.7209C4.60308 13.7142 4.86975 13.6526 5.11606 13.5397C5.36237 13.4269 5.58319 13.2652 5.7651 13.0644L7.73177 11.1061L12.6734 6.15605C12.7292 6.10202 12.7735 6.03725 12.8036 5.96563C12.8337 5.89402 12.8489 5.81706 12.8484 5.73939C12.8493 5.65919 12.8342 5.57961 12.8042 5.50524C12.7742 5.43088 12.7297 5.36318 12.6734 5.30605C12.5591 5.19586 12.4072 5.13329 12.2484 5.13105C12.1695 5.1304 12.0912 5.14554 12.0183 5.1756C11.9453 5.20565 11.879 5.25001 11.8234 5.30605L8.37344 8.76439L5.40677 11.7144C5.25364 11.8526 5.05471 11.9291 4.84844 11.9291C4.64217 11.9291 4.44323 11.8526 4.2901 11.7144C4.21728 11.6416 4.15952 11.5553 4.1201 11.4602C4.08069 11.3651 4.0604 11.2632 4.0604 11.1602C4.0604 11.0573 4.08069 10.9554 4.1201 10.8603C4.15952 10.7652 4.21728 10.6788 4.2901 10.6061L9.20677 5.68939L10.6651 4.19772C10.9725 3.89346 11.3631 3.68697 11.7877 3.60426C12.2123 3.52156 12.6518 3.56634 13.051 3.73295C13.4502 3.89957 13.7911 4.18058 14.0309 4.54059C14.2707 4.9006 14.3985 5.32351 14.3984 5.75605C14.3991 6.0415 14.3426 6.32419 14.2324 6.58751C14.1222 6.85083 13.9605 7.08946 13.7568 7.28939L6.8901 14.1811C6.39099 14.6801 5.75562 15.0205 5.06373 15.1598C4.37183 15.2991 3.65421 15.2309 3.0009 14.9639C2.34758 14.6969 1.78767 14.2429 1.3914 13.6589C0.995132 13.0748 0.780154 12.3868 0.773438 11.6811C0.784229 10.7427 1.16098 9.84569 1.82344 9.18105L8.72344 2.28105C9.42383 1.59445 10.3107 1.12901 11.2736 0.94265C12.2365 0.756293 13.233 0.857256 14.139 1.23297C15.045 1.60869 15.8205 2.24256 16.3689 3.05569C16.9173 3.86882 17.2145 4.8253 17.2234 5.80605V5.73939Z" fill="#ffffff"/>
</svg>
