<svg width="1600" height="468" viewBox="0 0 1600 468" fill="none" xmlns="http://www.w3.org/2000/svg">
<path opacity="0.6" fill-rule="evenodd" clip-rule="evenodd" d="M189.053 37.9641L189.53 37.7546L275.018 0V302.879L292.231 292.568V125.716L386.036 152.155V268.415L405.76 268.126V167.636L431.195 166.968V194.54H460.989V247.763H486.042V179.51L559.149 204.158V303.493H622.812V336.325H663.233V245.259H691.459V166.989H729.72V108.755H767.074V152.274H774.566V120.026H794.358V224.444H811.607V305.847H828.821V249.866L855.033 285.875V288.123L854.808 288.286L830.423 254.786V307.446H810.005V226.045H792.756V121.625H776.17V153.872H765.472V110.354H731.321V168.586H693.062V246.858H664.835V337.924H621.21V305.092H557.547V205.306L487.644 181.739V249.362H459.387V196.139H429.593V168.608L407.362 169.192V269.701L384.432 270.038V153.366L293.832 127.832V293.473L273.414 305.705V2.45761L190.655 39.0066V246.844L169.923 247.184V94.7622L143.298 84.425V213.672H123.194V121.879L29.0005 159.315V281.979L-13 265.702V264.843L-12.7101 264.097L27.3989 279.642V158.102L124.796 119.773V212.073H141.696V82.0873L171.524 93.6685V245.56L189.053 245.274V37.9641ZM1611.95 56.8778L1611.47 56.6684L1525.98 18.9138V321.793L1508.77 311.481V144.63L1414.97 171.069V287.329L1416.57 398.204H1395.25V297.714L1369.82 297.046V324.618H1340.03V377.841H1314.97V309.588L1241.87 334.236V433.571H1178.2V466.403H1137.78V375.337H1109.56V297.067H1071.3V238.833H1033.94V282.352H1026.45V250.104H1006.66V305.519H989.408V386.922H972.194V330.941V283.951H970.592V285.964V335.861V388.521H991.01V307.119H1008.26V251.703H1024.85V283.951H1035.54V240.432H1069.69V298.664H1107.95V376.936H1136.18V468.002H1179.8V435.17H1243.47V335.384L1313.37 311.817V379.44H1341.63V326.217H1371.42V298.687L1393.65 299.27V399.779H1418.46L1416.57 288.952V172.279L1507.17 146.746V312.386L1527.59 324.618V21.3714L1610.35 57.9203V265.758L1631.08 266.098V113.676L1657.7 103.339V232.586H1677.81V140.793L1812 178.229V300.893L1854 284.616V283.757L1853.71 283.01L1813.6 298.555V177.016L1676.21 138.687V230.987H1659.3V101.001L1629.48 112.582V264.474L1611.95 264.187V56.8778Z" fill="url(#paint0_linear_482_1870)"/>
<defs>
<linearGradient id="paint0_linear_482_1870" x1="-237.191" y1="90.106" x2="1682.08" y2="388.694" gradientUnits="userSpaceOnUse">
<stop stop-color="white"/>
<stop offset="1" stop-color="white" stop-opacity="0"/>
</linearGradient>
</defs>
</svg>
